<svg id="Capa_1" enable-background="new 0 0 512 512" height="512" viewBox="0 0 512 512" width="512" xmlns="http://www.w3.org/2000/svg"><g><g><circle cx="256" cy="256" fill="#fff2e2" r="248.501"/></g><g><path d="m504.5 256c0 137.243-111.258 248.5-248.5 248.5-30.474 0-59.658-5.479-86.633-15.517 21.206 5.889 43.551 9.038 66.637 9.038 137.243 0 248.5-111.258 248.5-248.51 0-106.739-67.297-197.75-161.768-232.943 104.83 29.154 181.764 125.305 181.764 239.432z" fill="#fee8c7"/></g><g><path d="m437.128 258.651c-1.549-1.414-1.549-3.887 0-5.301 8.343-7.619 12.73-19.21 10.623-31.16-2.108-11.953-10.196-21.345-20.644-25.65-1.97-.812-2.752-3.163-1.769-5.054 5.196-10 5.338-22.356-.714-32.84-6.053-10.485-16.828-16.54-28.088-17.039-2.162-.096-3.758-1.997-3.476-4.143 1.464-11.175-2.628-22.838-11.902-30.62s-21.47-9.787-32.221-6.404c-2.065.65-4.214-.591-4.684-2.704-2.446-11.002-10.28-20.562-21.657-24.702-11.403-4.15-23.58-1.843-32.532 5.051-1.662 1.28-4.097.85-5.221-.921-6.054-9.54-16.707-15.872-28.842-15.872s-22.788 6.333-28.842 15.872c-1.124 1.771-3.559 2.2-5.221.921-8.952-6.894-21.128-9.201-32.532-5.051-11.377 4.141-19.211 13.7-21.657 24.702-.47 2.113-2.619 3.354-4.684 2.704-10.751-3.383-22.947-1.378-32.221 6.404s-13.367 19.444-11.902 30.62c.281 2.146-1.314 4.047-3.476 4.143-11.26.498-22.034 6.554-28.088 17.039-6.052 10.483-5.91 22.84-.714 32.84.982 1.891.201 4.243-1.769 5.054-10.448 4.305-18.537 13.697-20.644 25.65-2.107 11.951 2.28 23.541 10.623 31.16 1.549 1.414 1.549 3.887 0 5.301-8.343 7.619-12.73 19.21-10.623 31.16 2.108 11.953 10.196 21.345 20.644 25.65 1.97.812 2.752 3.164 1.769 5.054-5.196 10-5.338 22.356.714 32.84 6.053 10.485 16.828 16.54 28.088 17.039 2.162.096 3.758 1.997 3.476 4.143-1.464 11.176 2.628 22.838 11.902 30.62s21.47 9.787 32.221 6.404c2.065-.65 4.214.591 4.684 2.704 2.446 11.002 10.28 20.562 21.657 24.702 11.403 4.15 23.58 1.843 32.532-5.051 1.662-1.28 4.097-.85 5.221.921 6.054 9.54 16.707 15.872 28.842 15.872s22.788-6.333 28.842-15.872c1.124-1.771 3.559-2.2 5.221-.921 8.952 6.894 21.128 9.201 32.532 5.051 11.377-4.141 19.211-13.7 21.657-24.702.47-2.113 2.619-3.354 4.684-2.704 10.751 3.383 22.947 1.378 32.221-6.404s13.367-19.444 11.902-30.62c-.281-2.146 1.314-4.047 3.476-4.143 11.26-.498 22.034-6.554 28.088-17.039 6.052-10.483 5.91-22.84.714-32.84-.982-1.891-.201-4.243 1.769-5.054 10.448-4.305 18.537-13.697 20.644-25.65 2.107-11.951-2.28-23.542-10.623-31.16z" fill="#fed2a4"/></g><g><path d="m437.124 258.65c-1.54-1.41-1.54-3.889 0-5.299 8.348-7.618 12.738-19.206 10.628-31.164-2.11-11.948-10.198-21.346-20.646-25.645-1.97-.81-2.749-3.169-1.77-5.059 5.199-9.998 5.339-22.356-.71-32.833-6.059-10.488-16.826-16.547-28.094-17.047-2.16-.09-3.759-1.99-3.469-4.139 1.46-11.178-2.63-22.835-11.908-30.624-9.268-7.778-21.466-9.778-32.224-6.399-2.06.65-4.209-.59-4.679-2.709-2.449-10.998-10.278-20.556-21.656-24.695-11.408-4.149-23.585-1.85-32.533 5.049-1.66 1.28-4.099.85-5.219-.92-6.059-9.538-16.707-15.877-28.844-15.877-4.249 0-8.328.78-12.078 2.21 12.288 4.579 27.764 16.447 36.263 36.773.8 1.93 3.559 2.2 5.219.92 8.948-6.899 19.136-12.066 30.782-8.643 13.081 3.844 13.619 13.791 16.068 24.799.47 2.11 2.619 3.349 4.679 2.7 10.758-3.379 22.735-3.688 32.013 4.09 9.268 7.788 7.169 16.447 5.699 27.614-.28 2.15 1.32 4.049 3.479 4.149 11.258.5 21.971 1.274 28.02 11.751 6.059 10.488 4.893 23.472-.296 33.48-.99 1.89-.2 4.239 1.77 5.049 10.448 4.309 15.972 9.076 17.876 19.125 2.259 11.92-2.68 20.426-11.018 28.044-1.55 1.41-1.555 3.895 0 5.299 8.348 7.54 16.505 13.674 14.454 26.987-1.306 8.48-7.707 14.186-22.195 18.08-2.057.553-2.749 3.159-1.77 5.049 5.199 10.008 7.819 23.045 1.77 33.523-6.059 10.488-15.521 13.317-26.779 13.817-2.17.09-3.759 2-3.479 4.139 1.46 11.178 3.055 22.073-8.181 30.352-9.747 7.182-18.277 5.115-29.025 1.736-2.07-.65-4.209.59-4.679 2.7-2.449 11.008-8.208 21.415-19.586 25.554-11.398 4.159-22.135-.947-31.083-7.845-1.66-1.28-4.099-.85-5.219.92-4.869 7.679-6.801 22.176-36.783 34.02 4.289 1.94 9.058 3.029 14.077 3.029 12.138 0 22.785-6.339 28.844-15.877 1.12-1.77 3.559-2.2 5.219-.92 8.948 6.899 21.126 9.198 32.533 5.049 11.378-4.139 19.206-13.697 21.656-24.695.47-2.12 2.619-3.359 4.679-2.709 10.758 3.379 22.955 1.38 32.224-6.399 9.278-7.788 13.367-19.446 11.908-30.624-.29-2.15 1.31-4.049 3.469-4.139 11.268-.5 22.035-6.559 28.094-17.047 6.049-10.478 5.909-22.835.71-32.833-.98-1.89-.2-4.249 1.77-5.059 10.448-4.299 18.536-13.697 20.646-25.645 2.111-11.956-2.278-23.544-10.626-31.162z" fill="#ffbd86"/></g><g><circle cx="256" cy="256" fill="#e8ad8c" r="67.275"/></g><g><path d="m323.277 256c0 37.152-30.124 67.277-67.277 67.277-7.279 0-14.287-1.16-20.846-3.299.5.01.99.02 1.49.02 37.153 0 67.276-30.124 67.276-67.277 0-29.874-19.476-55.209-46.431-63.977 36.463.789 65.788 30.603 65.788 67.256z" fill="#e19974"/></g><g><circle cx="256" cy="256" fill="#fed2a4" r="33.672"/></g><g><path d="m289.673 256c0 18.596-15.077 33.673-33.673 33.673-5.349 0-10.398-1.25-14.887-3.469 15.757-2.809 27.715-16.577 27.715-33.143 0-13.247-7.659-24.705-18.786-30.204 1.93-.35 3.929-.53 5.959-.53 18.595 0 33.672 15.077 33.672 33.673z" fill="#ffbd86"/></g><g><path d="m439.409 77.402c-2.89-2.968-7.638-3.031-10.604-.141-2.967 2.89-3.029 7.637-.14 10.603 44.069 45.249 68.338 104.96 68.338 168.135 0 64.375-25.069 124.896-70.588 170.415-45.52 45.519-106.041 70.587-170.415 70.587s-124.895-25.068-170.415-70.587c-45.519-45.518-70.588-106.039-70.588-170.414s25.069-124.896 70.588-170.415c45.52-45.519 106.041-70.587 170.415-70.587 54.082 0 105.181 17.498 147.773 50.605 3.269 2.542 7.981 1.952 10.522-1.319 2.542-3.27 1.951-7.981-1.319-10.522-45.248-35.171-99.529-53.762-156.976-53.762-68.38 0-132.667 26.628-181.019 74.98-48.353 48.352-74.981 112.64-74.981 181.02s26.628 132.668 74.981 181.019c48.352 48.352 112.639 74.981 181.019 74.981s132.667-26.628 181.019-74.98c48.353-48.352 74.981-112.64 74.981-181.02 0-67.107-25.78-130.534-72.591-178.598z"/><path d="m431.117 154.896c-6.481-11.224-17.611-18.657-30.291-20.419.467-12.793-4.92-25.047-14.849-33.377-9.928-8.331-22.93-11.507-35.448-8.827-3.935-12.181-13.189-21.852-25.369-26.286-12.184-4.435-25.485-2.974-36.33 3.828-7.865-10.101-19.863-16.023-32.83-16.023-12.968 0-24.966 5.921-32.829 16.023-10.844-6.803-24.143-8.265-36.33-3.828-12.18 4.434-21.434 14.104-25.369 26.286-12.519-2.684-25.52.497-35.448 8.827-9.929 8.33-15.316 20.584-14.849 33.377-12.68 1.761-23.811 9.194-30.291 20.419-6.48 11.224-7.353 24.582-2.538 36.442-11.315 5.99-19.229 16.778-21.481 29.55-2.252 12.771 1.497 25.614 10.08 35.112-8.583 9.498-12.331 22.341-10.08 35.113 2.252 12.771 10.167 23.558 21.481 29.549-4.814 11.861-3.942 25.218 2.538 36.442 6.481 11.224 17.611 18.657 30.291 20.419-.467 12.793 4.92 25.047 14.849 33.377 9.928 8.331 22.929 11.506 35.448 8.827 3.935 12.181 13.189 21.852 25.369 26.286 12.184 4.436 25.485 2.973 36.33-3.828 7.864 10.102 19.862 16.023 32.829 16.023 12.968 0 24.966-5.921 32.829-16.023 10.844 6.802 24.143 8.264 36.33 3.828 12.18-4.434 21.434-14.104 25.369-26.286 12.521 2.684 25.521-.496 35.448-8.827 9.929-8.33 15.316-20.584 14.849-33.377 12.68-1.761 23.811-9.194 30.291-20.419 6.48-11.224 7.353-24.582 2.538-36.442 11.315-5.99 19.229-16.778 21.481-29.55 2.251-12.771-1.496-25.614-10.08-35.112 8.583-9.498 12.331-22.341 10.08-35.113-2.252-12.771-10.167-23.558-21.481-29.549 4.815-11.861 3.943-25.217-2.537-36.442zm11.068 98.218c.003.003.006.006.009.009-.003-.003-.006-.006-.009-.009zm-1.819-29.622c1.592 9.031-1.508 18.123-8.295 24.32-2.29 2.091-3.603 5.076-3.603 8.188s1.314 6.096 3.603 8.188c6.786 6.197 9.887 15.289 8.295 24.32-1.592 9.034-7.618 16.518-16.115 20.02-2.85 1.174-5.094 3.512-6.156 6.416-1.077 2.945-.863 6.236.588 9.029 4.225 8.131 4.018 17.713-.554 25.633-4.573 7.92-12.77 12.891-21.925 13.296-3.124.139-6.064 1.587-8.067 3.974s-2.919 5.534-2.513 8.635c1.191 9.087-2.281 18.023-9.287 23.901s-16.409 7.745-25.152 4.995c-2.983-.938-6.241-.582-8.94.976-2.698 1.558-4.635 4.202-5.313 7.254-1.989 8.945-8.307 16.154-16.901 19.282-8.619 3.138-18.111 1.662-25.391-3.944-2.456-1.892-5.623-2.667-8.689-2.129-3.065.54-5.776 2.351-7.439 4.971-4.924 7.759-13.34 12.392-22.511 12.392s-17.587-4.633-22.512-12.393c-1.662-2.619-4.373-4.43-7.438-4.97-.639-.112-1.282-.168-1.923-.168-2.432 0-4.821.799-6.765 2.295-7.282 5.606-16.775 7.082-25.392 3.945-8.594-3.128-14.913-10.337-16.901-19.282-.679-3.052-2.615-5.696-5.313-7.254-2.699-1.559-5.957-1.916-8.941-.976-8.744 2.75-18.146.884-25.151-4.995-7.006-5.879-10.478-14.814-9.287-23.901.406-3.101-.51-6.248-2.513-8.635s-4.943-3.835-8.067-3.973c-9.156-.406-17.352-5.377-21.926-13.297-4.572-7.919-4.779-17.501-.554-25.634 1.45-2.792 1.664-6.084.587-9.028-1.062-2.904-3.305-5.242-6.155-6.416-8.498-3.501-14.523-10.985-16.116-20.02-1.592-9.031 1.508-18.123 8.295-24.32 2.29-2.091 3.603-5.076 3.603-8.188s-1.314-6.096-3.604-8.188c-6.786-6.197-9.887-15.289-8.295-24.32 1.592-9.034 7.618-16.518 16.115-20.019 2.851-1.174 5.094-3.512 6.156-6.416 1.077-2.945.863-6.236-.588-9.029-4.225-8.131-4.018-17.713.554-25.633 4.573-7.92 12.77-12.891 21.925-13.296 3.124-.139 6.064-1.587 8.067-3.974s2.919-5.534 2.513-8.635c-1.191-9.087 2.281-18.023 9.287-23.901s16.409-7.745 25.152-4.995c2.982.938 6.24.582 8.94-.976 2.698-1.558 4.635-4.202 5.313-7.254 1.989-8.945 8.307-16.154 16.901-19.282 8.618-3.138 18.111-1.662 25.391 3.944 2.457 1.892 5.624 2.667 8.689 2.128 3.065-.54 5.776-2.351 7.439-4.971 4.924-7.759 13.34-12.392 22.511-12.392s17.587 4.633 22.512 12.393c1.662 2.619 4.373 4.43 7.438 4.97 3.065.538 6.232-.237 8.688-2.127 7.281-5.607 16.773-7.083 25.392-3.945 8.594 3.128 14.913 10.337 16.901 19.282.679 3.052 2.615 5.696 5.313 7.254 2.699 1.558 5.956 1.915 8.941.976 8.744-2.75 18.145-.884 25.151 4.995s10.478 14.814 9.287 23.901c-.406 3.101.51 6.248 2.513 8.635s4.943 3.835 8.067 3.973c9.156.406 17.352 5.377 21.926 13.297 4.572 7.919 4.779 17.501.554 25.634-1.45 2.792-1.664 6.084-.587 9.028 1.062 2.904 3.306 5.242 6.155 6.416 8.5 3.502 14.525 10.986 16.117 20.02z"/><path d="m256 163.86c4.141 0 7.499-3.357 7.499-7.498v-41.469c0-4.142-3.357-7.499-7.499-7.499-4.141 0-7.498 3.357-7.498 7.499v41.469c0 4.141 3.357 7.498 7.498 7.498z"/><path d="m256 348.14c-4.141 0-7.498 3.357-7.498 7.499v41.469c0 4.142 3.357 7.499 7.498 7.499s7.499-3.357 7.499-7.499v-41.469c0-4.143-3.358-7.499-7.499-7.499z"/><path d="m199.687 173.46c1.389 2.406 3.909 3.75 6.501 3.75 1.272 0 2.561-.324 3.742-1.006 3.587-2.071 4.815-6.657 2.745-10.243l-20.735-35.913c-2.071-3.587-6.657-4.814-10.243-2.745-3.587 2.071-4.815 6.657-2.745 10.243z"/><path d="m312.313 338.54c-2.07-3.587-6.657-4.814-10.243-2.745-3.587 2.071-4.815 6.657-2.745 10.243l20.735 35.913c1.389 2.406 3.909 3.75 6.501 3.75 1.272 0 2.561-.324 3.742-1.006 3.587-2.071 4.815-6.657 2.745-10.243z"/><path d="m173.46 199.687-35.913-20.734c-3.587-2.071-8.173-.843-10.243 2.745-2.071 3.586-.842 8.172 2.745 10.243l35.913 20.734c1.181.682 2.47 1.006 3.742 1.006 2.591 0 5.112-1.344 6.501-3.75 2.07-3.587.841-8.173-2.745-10.244z"/><path d="m381.952 320.059-35.913-20.734c-3.587-2.071-8.172-.843-10.243 2.745-2.071 3.586-.842 8.172 2.745 10.243l35.913 20.734c1.181.681 2.47 1.006 3.742 1.006 2.591 0 5.112-1.344 6.501-3.75 2.07-3.587.842-8.173-2.745-10.244z"/><path d="m163.86 256c0-4.142-3.357-7.499-7.499-7.499h-41.469c-4.141 0-7.498 3.357-7.498 7.499s3.357 7.499 7.498 7.499h41.469c4.142 0 7.499-3.357 7.499-7.499z"/><path d="m397.107 248.501h-41.469c-4.141 0-7.498 3.357-7.498 7.499s3.357 7.499 7.498 7.499h41.469c4.141 0 7.499-3.357 7.499-7.499s-3.357-7.499-7.499-7.499z"/><path d="m165.961 299.325-35.913 20.734c-3.587 2.071-4.815 6.657-2.745 10.243 1.389 2.406 3.909 3.75 6.501 3.75 1.272 0 2.562-.324 3.742-1.006l35.913-20.734c3.586-2.071 4.815-6.657 2.745-10.243s-6.657-4.814-10.243-2.744z"/><path d="m342.296 213.68c1.272 0 2.562-.324 3.742-1.006l35.913-20.734c3.587-2.071 4.815-6.657 2.745-10.243-2.071-3.587-6.657-4.814-10.243-2.745l-35.913 20.734c-3.586 2.071-4.815 6.657-2.745 10.243 1.389 2.407 3.91 3.751 6.501 3.751z"/><path d="m209.93 335.796c-3.587-2.07-8.172-.843-10.243 2.745l-20.735 35.913c-2.071 3.586-.842 8.172 2.745 10.243 1.181.682 2.47 1.006 3.742 1.006 2.591 0 5.112-1.344 6.501-3.75l20.735-35.913c2.071-3.588.842-8.174-2.745-10.244z"/><path d="m330.303 127.304c-3.587-2.071-8.173-.843-10.243 2.745l-20.735 35.913c-2.071 3.586-.842 8.172 2.745 10.243 1.181.682 2.47 1.006 3.742 1.006 2.591 0 5.112-1.344 6.501-3.75l20.735-35.913c2.07-3.587.842-8.173-2.745-10.244z"/><path d="m330.774 256c0-41.231-33.544-74.774-74.774-74.774s-74.774 33.543-74.774 74.774c0 7.633 1.148 15.166 3.412 22.389 1.239 3.951 5.446 6.155 9.398 4.912 3.952-1.238 6.151-5.446 4.913-9.398-1.809-5.77-2.726-11.793-2.726-17.904 0-32.961 26.816-59.777 59.777-59.777s59.777 26.816 59.777 59.777-26.816 59.778-59.777 59.778c-15.368 0-29.971-5.82-41.119-16.389-3.006-2.849-7.752-2.723-10.601.283-2.849 3.005-2.723 7.751.283 10.6 13.946 13.222 32.213 20.503 51.437 20.503 41.231 0 74.774-33.543 74.774-74.774z"/><path d="m256 297.17c22.702 0 41.17-18.469 41.17-41.17 0-22.702-18.469-41.17-41.17-41.17s-41.17 18.469-41.17 41.17 18.469 41.17 41.17 41.17zm0-67.343c14.432 0 26.173 11.742 26.173 26.173s-11.741 26.173-26.173 26.173-26.173-11.742-26.173-26.173 11.741-26.173 26.173-26.173z"/><ellipse cx="256" cy="256" rx="7.499" ry="7.499" transform="matrix(.383 -.924 .924 .383 -78.48 394.546)"/></g></g></svg>