<svg xmlns="http://www.w3.org/2000/svg" xmlns:xlink="http://www.w3.org/1999/xlink" version="1.1" id="Layer_1" x="0px" y="0px" style="enable-background:new 0 0 1479.1 929.9;" xml:space="preserve" viewBox="17 16.4 1446.56 898.25">
<style type="text/css">
	.st0{stroke:#000000;stroke-width:1.0822;stroke-miterlimit:8.6574;}
	.st1{fill:#DDDCD9;stroke:#DDDCD9;stroke-width:1.0822;stroke-miterlimit:8.6574;}
	.st2{fill:#ADAAA3;stroke:#ADAAA3;stroke-width:1.0822;stroke-miterlimit:8.6574;}
	.st3{fill:#919191;stroke:#919191;stroke-width:1.0822;stroke-miterlimit:8.6574;}
	.st4{fill:#F7D77F;stroke:#F7D77F;stroke-width:1.0822;stroke-miterlimit:8.6574;}
	.st5{fill:#DEC172;stroke:#DEC172;stroke-width:1.0822;stroke-miterlimit:8.6574;}
	.st6{opacity:0.51;fill:#453C23;stroke:#453C23;stroke-width:1.0822;stroke-miterlimit:8.6574;enable-background:new    ;}
	.st7{fill:#C7C7C4;stroke:#C7C7C4;stroke-width:1.0822;stroke-miterlimit:8.6574;}
	.st8{fill:#DFDEDB;stroke:#DFDEDB;stroke-width:1.0822;stroke-miterlimit:8.6574;}
	.st9{fill:#C6C6C3;stroke:#C6C6C3;stroke-width:1.0822;stroke-miterlimit:8.6574;}
	.st10{opacity:0.48;fill:#5C5C5A;stroke:#5C5C5A;stroke-width:1.0822;stroke-miterlimit:8.6574;enable-background:new    ;}
	.st11{opacity:0.53;fill:#353534;stroke:#353534;stroke-width:1.0822;stroke-miterlimit:8.6574;enable-background:new    ;}
	.st12{opacity:0.56;fill:#1C1C1C;stroke:#1C1C1C;stroke-width:1.0822;stroke-miterlimit:8.6574;enable-background:new    ;}
	.st13{opacity:0.68;fill:#494948;stroke:#494948;stroke-width:1.0822;stroke-miterlimit:8.6574;enable-background:new    ;}
</style>
<g>
	<g id="imagebot_372" transform="translate(2218, 1239.74) matrix(2.16435, 0, 0, 2.16435, -3887.66, -2092.84)">
		<path id="imagebot_373" class="st0" d="M1144.5,405.3c9.1-3.5,19-3.3,28.7-3.3c10.4,0.1,20.7-0.3,31.1,0.5c14.5,1,29,2.8,43.4,4.8    c12.4,1.3,24.6,3.9,36.8,6.1c9.3,1.3,18.2,4,27.4,5.8c11.4,2,22.7,5,34.2,6.9c18.4,4.1,36.9,8.3,54.9,14.2    c11.8,4.1,23.8,8.6,33.8,16.2c6.4,4.9,11.2,12.2,12.3,20.3c0.6,7.1,0.4,14.4-1.6,21.3c-5.5,19.4-16.2,36.8-27.9,52.9    c-23.2,33.9-46.8,67.8-75.8,97.2c-8.6,7.3-17,15.8-27.9,19.5c-1.8,0.5-4.2,0.9-4.5,3.1c-1.6,5.2-6.1,8.6-10.3,11.7    c-5,3.6-10.4,6.4-15.9,9.2c-1.3,3.3-1.5,6.9-2.8,10.2c-6.7,17-15.2,33.2-23.9,49.1c-3.8,6.5-7.3,13.1-11.8,19.1    c-2.9,3.9-8,4.7-12.4,5.7c-15.1,2.9-30.6,2.6-45.9,3.3c-8.3,0.4-17.2-0.2-24.7,4c-5.4,2.6-9.4,7.3-13.8,11.2    c-3.7,5.5-7.7,11.1-13.7,14.3c-18.5,8.5-39.3,8.5-59.2,7.4c-6.8-0.8-13.7-1.4-20.4-2.8c-2.5-0.3-3.4-3.1-4.8-4.9    c-4.2-6.9-9.5-13.2-12.3-20.9c-0.4-1.4-1.3-2.6-2.6-3.1c-2.1-1.2-4.3-2.2-6.5-3.1c-2.1-1.1-4.6-0.8-6.8,0c-20.9,5.5-43,2.7-63.8-2    c-3.4-1-7.2-1.6-10.1-3.9c-3-3.9-2.9-9.3-5.8-13.2c-6-3.9-13.6-3.4-20.4-2.5c-2.6,0.3-5.2,0.9-7.6,1.7c-8.2,2.6-16.9,4.3-25.5,3.4    c-11.8-1-23.4-3.2-34.8-6.2c-2.7-0.6-5.2-1.7-7.3-3.5c-0.1-0.1-0.2-0.2-0.3-0.3c-12.1-14.5-19.7-32-27.7-48.9    c-3.6-7.3-6.3-15-9.9-22.2c-5.7-3.7-12.7-5.2-17.9-9.5c-1.2-1.1-2.6-2-4.1-2.5c-3-1.4-5.7-4-6.8-7.2c-0.6-4.2,3.4-7.1,6.2-9.5    c12.8-9.4,27.3-15.9,41.7-22.4c2.4-1,2.8-4,3.9-6.1c7.5-18.6,25-32,44.3-36.7c1,0.2,1.9-0.1,2.8-0.7c6.8-2.1,14.1-2.1,21.1-1.4    c7.6,0.9,14.2,4.9,20.8,8.3c8-3.5,16.2-6.5,24.6-8.8c3.8-4.2,6.6-9.3,10.8-13.2c7.9-8.3,17.7-14.9,28.8-18.1    c6.1-1.8,12.5-3.4,18.9-2.2c6.2,0.8,12,3.2,17.9,5.1c9.1-13,17.4-26.6,26.2-39.8c3.7-4.9,7-10,10-15.4    c12.1-17.3,22.6-35.6,35.3-52.5c2.7-3.3,4.9-7.1,8.1-9.9c1.2-0.8,2.1-1.9,2.7-3.2c3.1-4.8,7.4-8.6,11.3-12.7    C1123.4,417.2,1133.1,409.4,1144.5,405.3 M1155,406.9c-10.7,0.9-20.1,7-28.4,13.5c-12.2,9.8-22.2,22-31.5,34.5    c-11.8,15.9-21.8,32.9-32.8,49.2c-12.5,19-25,38-37.4,57.1c3,2.2,6.2,4,9.2,6.2c8.2-12.9,16.4-25.9,24.9-38.6    c10.9-16,23-31.1,33.9-47.1c12.1-16.8,24-33.8,37.3-49.7c5.3-5.5,10.1-12.5,18-14.2c21.8-4,44.1-2.3,66-0.4    c13.4,1.5,26.8,2.7,40.1,5.3c37.3,7.8,75,14.1,112,23.2c17.3,4.6,35,8.8,51.2,16.7c4.8,2.6,10.2,5.9,11.3,11.7    c2.4,11.8-2.1,23.4-5.9,34.3c-7.7,18.8-18.1,36.4-30.6,52.4c-3.4,4.3-7.2,8.2-10.4,12.7c-13.7,18.4-27.7,36.7-43.4,53.6    c-11,11.5-22.7,23.1-37.5,29.6c3.5,2.2,6.4,5,8.3,8.7c11.1-4.1,20.2-11.9,28.7-19.9c12.9-12.5,24.4-26.3,35.5-40.5    c11.8-15.3,23.1-31.1,34-47.1c10.7-15.4,22.1-30.4,29.2-47.9c3.7-8,5.9-16.6,6.6-25.4c0.3-7.8-1.6-16.1-7.3-21.8    c-8.9-8.8-20.9-13.3-32.4-17.7c-30.4-10.4-62.1-16-93.4-22.6c-28-6.6-56.4-11.3-85-14.6C1201.9,406.3,1178.4,404.2,1155,406.9     M1152.2,421.1c13.7,16.4,27.8,32.5,39.4,50.4c2.2,3.3,3.3,7.2,5.6,10.4c11.5,3,23.4,3.9,35.1,6.1c13.6,2.4,27.3,4.1,40.8,6.8    c22.3,4.1,44.3,9.7,66.4,14.6c10.5,1.8,20.9,4.6,31.7,4.9c3.6,0.3,6.5-2.1,9.4-3.8c8.2-5,16.2-10.4,23.9-16.2    c7.5-5.8,15.4-11.8,20-20.3c-1.1-2-2.4-3.9-4.4-5.1c-8.1-5.4-17.5-8.2-26.6-11.4c-35.7-10.8-72.5-17.5-109-24.8    c-10.4-1.5-20.5-4.1-30.8-6.2c-21.4-3.3-42.9-6.3-64.6-6.9C1176.8,419.6,1164.4,418.9,1152.2,421.1 M1134,433.8    c-22.9,27.1-41.8,57.3-63.5,85.5c-11.5,16.6-22.7,33.4-33,50.8c6.3,6.4,12.2,13.2,16.8,20.9c4.6-3.5,9.2-7.1,14.5-9.4    c11-5.1,23.9-6,35.6-2.7c7.2,1.9,13.5,5.6,19.7,9.6c10.2-19.4,23.1-37.2,35.3-55.3c11.1-16.4,22.9-32.3,33.4-49.2    c-0.6-5.2-4.3-9.3-6.8-13.7c-11.8-16.9-24.9-32.9-38.7-48.2C1141.9,424.8,1137.9,429.3,1134,433.8 M1387.3,511.1    c-3.1,2.3-6.9,3.7-9.7,6.4c-12.2,26.4-25,52.6-38.7,78.3c-10.1,18.5-20.3,37-32.8,54c6.7-3.6,12.4-8.7,18.1-13.8    c16.9-15.9,31.4-34.1,45.4-52.5c5.6-7.3,10.9-15,17.1-21.9c11.7-14.2,21.4-30.1,29.2-46.8c4.7-10.8,9.1-22,9.4-33.9    C1414.6,493.1,1400.9,502.2,1387.3,511.1 M1196.3,485.9c-12.3,19.5-26.1,38.1-39,57.2c-10.5,15.7-21.6,31-30,47.9    c4.6,4.7,9.4,9.2,13.1,14.7c6.8,9.2,11.4,19.9,14.8,30.8c5.3-7.8,11.5-15,19.1-20.6c15.1-11.9,36.6-16.4,54.5-8.5    c16.6,7.7,27.4,23.7,33.8,40.3c9.9,0.8,19.8,2.4,29.2,5.5c2.1,0.6,4.9,1.7,6.6-0.3c6.2-7.3,11.4-15.4,16.6-23.5    c11.2-18.1,21.3-37,31.1-55.9c9.1-18.3,18.5-36.6,26.6-55.4c-13.8-0.7-27.5-3.5-40.9-6.7c-20.5-4.4-40.8-9.6-61.5-13.4    c-12.4-1.8-24.7-4.2-37-6.1C1220.8,490.6,1208.5,488.3,1196.3,485.9 M973.4,565.2c-18.1,10.6-30,29.3-36.5,48.8    c1.8,3.5,3.9,6.9,5.9,10.4c2,3.5,3.1,7.5,5.1,11c14.1-14.3,36.1-20.2,55.5-14.8c7.5,2.1,14.5,5.7,20.9,10.2    c7.2-13.5,16-26.3,27-36.9c-4.7-8.1-10.6-15.4-17.7-21.5c-8.9-7.5-19.7-12.9-31.3-14.4C992.1,556.8,982.2,560.5,973.4,565.2     M1062.2,590c-15.1,11.3-26.3,27-34.9,43.6c9.5,8.2,16.2,19.1,21,30.7c2.4-2.9,5.7-5.1,7.7-8.3c3.2-1.8,6-4.1,9-6.1    c15.5-9.5,35.1-12.3,52.6-7.3c10,3,18.2,9.6,25.3,17c1.8-4.4,3.6-8.8,6-12.8c1.2-2.4,3.6-4.8,2.6-7.7c-2.9-11.5-8.2-22.5-15.3-32    c-4.2-5.3-8.5-10.8-14.3-14.3v-0.6c-10.5-7.8-23.6-12.3-36.7-10.7C1076.8,581.6,1069,585.3,1062.2,590 M874.4,594.4    c-12.3,3.7-24.1,10.5-32,20.8c-11.3,14.2-14.9,33-14.1,50.7c5,2.3,10.2,3.9,15.4,5.6c8.3,2.3,16.3,5.8,24.8,7.4    c6.7,2.8,13.9,4.5,20.8,6.6c9.8,3.2,19.7,6,29.5,9.2c4.1-20.3,11.8-40.5,25.7-56c-3.3-8.5-6.9-17.2-12.8-24.3    c-7.7-11.4-19.7-20.5-33.5-22.5C890.2,590.5,882.2,592.6,874.4,594.4 M923.8,599.2c3.3,3.6,6.9,7,9.9,10.9    c2.6-5.8,5.1-11.6,7.9-17.2C935.4,594.1,929.6,596.7,923.8,599.2 M1173.8,621.6c-12.8,11-21.7,25.9-27.9,41.4    c0.9,2.9,3.3,5,4.6,7.7c6,10.4,9.6,21.9,12.4,33.4c0.4,2.9,0.8,5.9,1.3,8.8c33.2-12.9,67-24.1,100.1-37.2    c-0.1-15.1-5.5-29.7-13.3-42.5c-4.7-7.1-10.2-14.1-17.6-18.4c-0.6-1.1-1.9-1.5-2.9-2.1c-6.9-3.3-14.4-5.7-22.1-5.3    C1195.5,608,1183.3,613.3,1173.8,621.6 M961.2,630.1c-8.4,4.9-15.2,12.3-20.7,20.3c-9,13.7-14.8,29.4-17.8,45.5    c13.3,5,26.6,9.9,40.4,13.3c11.1,3.9,22.6,6.3,33.9,9.7c8.7,2.1,17.2,4.6,26,6.3c3.3-20.4,10-40.6,22.4-57.3    c-1.9-5.2-4.5-10.1-7.2-15c-0.8-1.2-1.4-2.5-2.6-3.3c-3.5-6.3-8.7-11.4-14.4-15.8C1004.5,620.6,979.5,619.1,961.2,630.1     M797.4,652.2c-5.2,3.2-11.1,6.3-14.3,11.7c4.7,6.2,12.1,9,18.7,12.5c10.9,5,22.1,9.4,33.4,13.5c41.5,14.9,84,27.1,126.3,39.7    c20.1,5.4,40.5,9.6,60.9,14.2c11.8,2,23.4,5.2,35.3,7c9.2,1.6,18.3,3.9,27.7,4.4c13.3,0.8,26.9,0.7,39.7-3.4    c9.6-2.6,17.5-8.8,26.5-12.6c39.7-17.7,80.6-32.4,121.3-47.7c9.9-3.2,19.2-8.3,27.3-14.7c2.7-2.5,6.5-5.5,5.3-9.7    c-1.6-4.3-6.1-6.7-10.1-8.3c-9.8-4.3-20.5-5.5-31-6.8c0.7,2.9,1.6,5.8,2.4,8.8c4.3,0.9,9.4,0.9,12.8,4.1c2.1,1.8,1.6,5.1-0.1,6.9    c-2.8,2.8-6.5,4.5-10,6c-42.4,17.6-86.6,30.6-128.5,49.3c-4.8,2.3-9.3,5-14.2,6.8c-10.5,4.4-21.9,5.3-33.1,5.5    c-14.9-0.1-29.8-1.8-44.4-5c-6.7-1.6-13.6-2.6-20.3-4c-23.5-5.1-46.7-11.6-69.8-18.3c-9.7-3.2-19.7-5.8-29.1-9.7    c-31.1-10.9-63.1-19-94.3-29.8c-6.4-2-12.7-4.3-18.6-7.4c-2.9-1.3-2.8-5.3-1.7-7.8c2.2-3.5,6.3-5.2,9.8-7.2    c0.7-4.4,1.6-8.7,2.2-13.1C816.9,641.9,806.9,646.6,797.4,652.2 M1071.2,651c-18.9,9.7-30.7,28.9-37.6,48.3    c-2.8,8.8-5.9,17.7-6.3,27c9.2,1.3,18.2,3.7,27.3,5.4c9.3,1.3,18.5,3.1,27.9,3.6c17,1.2,35.2,0,50.3-8.6    c8.8-4.6,18.1-8.3,27.3-12.1c-1.3-12.6-4.9-24.8-10.2-36.3c-3.6-7.1-7.8-14.1-13.7-19.5c-3.5-3.9-7.9-6.9-12.4-9.4    C1107.4,641.2,1087.3,642.9,1071.2,651 M818.1,661.7c2,1.1,4.1,2.2,6.2,3c0.1-3.2,0.1-6.3,0-9.5    C821.7,656.7,818.6,658.4,818.1,661.7 M1267.5,665.3c0.3,2.8,0.6,5.5,0.8,8.3c3-1.4,7.9-2.2,8-6.4    C1273.5,666.1,1270.5,665.6,1267.5,665.3 M813.9,686.2c1.8,5.9,4.9,11.2,7.1,16.9c5.7,12.4,11.6,24.8,18.5,36.5    c3.4,5.1,6.4,10.8,11.6,14.4c3.8,1.6,8,2.1,12.1,3c11.1,2.6,22.5,4.7,33.9,4.2c3.7-0.4,7.5-1,11.1-2.2c10-3.4,20.8-4.8,31.2-2.6    c-5.6-11.8-13.2-22.5-19.9-33.7c-1.4-2.8-5.1-2.8-7.8-3.4c-9.9-3.8-20.3-6.1-30.3-9.7C858.6,702.6,836.1,694.8,813.9,686.2     M1241.6,707.5c-6.7,2-13.1,5.2-19.8,7.3c-19.6,7.6-39.3,15.1-58.5,23.5c-2.9,15.4-5,31.2-10.9,45.9c5.9-4.4,12.8-7.7,20.2-8.4    c10.3-0.9,20.7-0.8,31-1.4c5.9,0.2,11.8-0.2,17.6-0.8c6.2-0.8,12.8-1.2,18.4-4.2c4.3-3.9,6.7-9.4,9.8-14.2    c7-12.2,13.5-24.7,19.6-37.3c3.5-7.9,7.3-15.6,9.4-24C1266,698,1253.8,702.8,1241.6,707.5 M924.5,722.9c5.3,9.2,11.4,18,16.3,27.4    c4.2,7.3,6.6,15.4,9.9,23.1c17.7,5.3,36.1,7.9,54.6,6.9c5-0.3,10-1.2,14.9-2.3c4.2-1,8.5-0.2,12.7,0.7    c-4.6-10.2-7.9-20.9-12.3-31.1c-3.9-1-7.9-2-11.9-2.6c-8.3-1.7-16.6-3.7-24.8-5.7C963.7,735.1,944.2,728.5,924.5,722.9     M1128.4,755l-0.4,0.4c-8.5,2-17.1,3.9-25.8,4c-25.9,1.2-51-6.4-76.3-10.8c4.2,12.8,9.1,25.5,15.1,37.5    c3.8,8.4,9.3,15.9,14.4,23.5c18.1,2.2,36.7,4.6,54.7,1.3c5.1-0.3,10.2-1.3,15-3c4.2-1.5,8.6-3,11.8-6.2    c6.8-6.6,10.6-15.5,13.7-24.2c3.6-12.1,6.5-24.5,7.8-37C1148,744.4,1138.8,751,1128.4,755z"/>
		<path id="imagebot_374" class="st1" d="M1155,406.9c23.3-2.7,46.9-0.6,70.2,1.4c28.6,3.4,57,8,85,14.6c31.3,6.5,63,12.2,93.4,22.6    c11.5,4.4,23.5,8.9,32.4,17.7c5.7,5.7,7.6,14,7.3,21.8c-0.6,8.8-2.9,17.4-6.6,25.4c-7.1,17.4-18.5,32.5-29.2,47.9    c-10.9,16-22.2,31.8-34,47.1c-11.1,14.1-22.6,28-35.5,40.5c-8.5,8-17.6,15.7-28.7,19.9c-1.9-3.7-4.9-6.6-8.3-8.7    c14.8-6.5,26.5-18.1,37.5-29.6c15.7-16.9,29.7-35.2,43.4-53.6c3.2-4.5,7-8.4,10.4-12.7c12.5-16,22.9-33.6,30.6-52.4    c3.8-10.9,8.3-22.6,5.9-34.3c-1.1-5.8-6.5-9.1-11.3-11.7c-16.2-7.9-33.8-12.2-51.2-16.7c-37-9.1-74.7-15.4-112-23.2    c-13.3-2.6-26.7-3.9-40.1-5.3c-21.9-1.9-44.2-3.6-66,0.4c-7.9,1.7-12.7,8.8-18,14.2c-13.4,15.8-25.2,32.9-37.3,49.7    c-10.9,16-23,31.1-33.9,47.1c-8.5,12.7-16.7,25.7-24.9,38.6c-3-2.2-6.2-4-9.2-6.2c12.4-19.1,24.8-38.1,37.4-57.1    c11-16.4,21.1-33.4,32.8-49.2c9.3-12.5,19.4-24.6,31.5-34.5C1134.9,413.9,1144.3,407.9,1155,406.9z"/>
		<path id="imagebot_375" class="st2" d="M1152.2,421.1c12.2-2.2,24.6-1.5,37-1.5c21.7,0.7,43.2,3.6,64.6,6.9    c10.3,2.1,20.4,4.7,30.8,6.2c36.5,7.3,73.3,13.9,109,24.8c9.1,3.2,18.5,6,26.6,11.4c1.9,1.2,3.2,3.1,4.4,5.1    c-4.6,8.5-12.6,14.5-20,20.3c-7.7,5.8-15.7,11.1-23.9,16.2c-2.9,1.6-5.8,4-9.4,3.8c-10.7-0.2-21.1-3.1-31.7-4.9    c-22.2-4.9-44.1-10.4-66.4-14.6c-13.5-2.7-27.3-4.3-40.8-6.8c-11.7-2.2-23.6-3.2-35.1-6.1c-2.3-3.2-3.3-7.1-5.6-10.4    C1180,453.6,1165.9,437.5,1152.2,421.1z"/>
		<path id="imagebot_376" class="st2" d="M1134,433.8c3.9-4.5,7.9-9,13.3-11.8c13.8,15.3,26.9,31.3,38.7,48.2    c2.5,4.4,6.2,8.6,6.8,13.7c-10.4,16.8-22.3,32.8-33.4,49.2c-12.2,18.1-25.1,36-35.3,55.3c-6.2-4-12.5-7.7-19.7-9.6    c-11.7-3.3-24.6-2.4-35.6,2.7c-5.3,2.3-9.9,5.9-14.5,9.4c-4.6-7.7-10.5-14.5-16.8-20.9c10.3-17.4,21.5-34.2,33-50.8    C1092.2,491.2,1111.1,461,1134,433.8z"/>
		<path id="imagebot_377" class="st3" d="M1100.7,441.5c-1.2-1.4,1.1-4.2,2.7-3.2C1102.8,439.6,1101.9,440.7,1100.7,441.5z"/>
		<path id="imagebot_378" class="st2" d="M1387.3,511.1c13.6-8.8,27.3-18,38-30.3c-0.2,11.9-4.7,23.2-9.4,33.9    c-7.8,16.7-17.5,32.6-29.2,46.8c-6.2,6.9-11.5,14.6-17.1,21.9c-14.1,18.4-28.5,36.6-45.4,52.5c-5.6,5.1-11.3,10.2-18.1,13.8    c12.5-17,22.8-35.5,32.8-54c13.7-25.7,26.5-51.9,38.7-78.3C1380.4,514.8,1384.2,513.3,1387.3,511.1z"/>
		<path id="imagebot_379" class="st2" d="M1196.3,485.9c12.2,2.3,24.4,4.7,36.8,6.2c12.4,1.9,24.6,4.3,37,6.1    c20.6,3.8,41,9,61.5,13.4c13.5,3.2,27.1,6,40.9,6.7c-8.1,18.8-17.5,37-26.6,55.4c-9.8,18.9-19.8,37.8-31.1,55.9    c-5.2,8.1-10.4,16.1-16.6,23.5c-1.7,1.9-4.5,0.8-6.6,0.3c-9.4-3.1-19.3-4.7-29.2-5.5c-6.4-16.6-17.2-32.6-33.8-40.3    c-17.9-7.9-39.4-3.3-54.5,8.5c-7.6,5.6-13.8,12.8-19.1,20.6c-3.4-10.9-7.9-21.6-14.8-30.8c-3.7-5.5-8.5-10-13.1-14.7    c8.5-16.9,19.6-32.2,30-47.9C1170.2,524,1184,505.4,1196.3,485.9z"/>
		<path id="imagebot_380" class="st3" d="M1047.4,519.3c3.1-5.2,5.7-10.9,10-15.4C1054.4,509.3,1051.1,514.4,1047.4,519.3z"/>
		<path id="imagebot_381" class="st4" d="M973.4,565.2c8.8-4.7,18.7-8.4,28.8-7.3c11.6,1.5,22.4,6.9,31.3,14.4c-0.7,0.3-2,1-2.7,1.3    c-1.4,5.1-2.3,10.4-5,15.1c-3.2,5.8-6.5,11.5-9.6,17.4c-3.2,5.7-7,11.3-12.9,14.6c-19.4-5.3-41.3,0.5-55.5,14.8    c-2-3.5-3.1-7.5-5.1-11c-1.9-3.5-4.1-6.8-5.9-10.4C943.4,594.5,955.3,575.8,973.4,565.2z"/>
		<path id="imagebot_382" class="st5" d="M1030.7,573.6c0.7-0.3,2.1-1,2.7-1.3c7.1,6.1,13,13.5,17.6,21.5    c-11,10.7-19.8,23.4-27,36.9c-6.4-4.5-13.3-8.1-20.9-10.2c5.8-3.3,9.7-8.9,12.9-14.6c3.1-5.8,6.4-11.6,9.6-17.4    C1028.4,584,1029.3,578.6,1030.7,573.6z"/>
		<path id="imagebot_383" class="st4" d="M1062.2,590c6.8-4.7,14.7-8.4,23.1-8.6c13.1-1.6,26.2,2.9,36.7,10.7v0.6    c-0.1,7.2,1.1,14.6-1.7,21.4c-2.6,6.8-5.9,13.6-11.5,18.5c-4.8,4.2-11.7,3.6-17.6,3.4c-7.5-0.3-15.8-1.7-22.4,2.6    c-5.9,4.3-11.3,10-12.8,17.5c-2,3.2-5.3,5.4-7.7,8.3c-4.7-11.5-11.5-22.5-21-30.7C1035.8,617,1047.1,601.3,1062.2,590z"/>
		<path id="imagebot_384" class="st6" d="M875.3,590.1c0.5-1.7,1.5-1.9,2.8-0.7C877.3,590,876.4,590.2,875.3,590.1z"/>
		<path id="imagebot_385" class="st4" d="M874.4,594.4c7.8-1.8,15.8-4,23.8-2.4c13.8,1.9,25.8,11.1,33.5,22.5c-2.2-1-4.4-2-6.5-3    c-1,7.1-2,14.2-4.6,20.9c-6.2,16.5-19,30.2-34.5,38.5c-5.7,3-12.1,4.5-17.6,8.1c-8.5-1.6-16.5-5.1-24.8-7.4    c-5.2-1.7-10.4-3.3-15.4-5.6c-0.8-17.8,2.9-36.5,14.1-50.7C850.4,604.9,862.1,598.1,874.4,594.4z"/>
		<path id="imagebot_386" class="st7" d="M923.8,599.2c5.8-2.5,11.6-5.1,17.8-6.4c-2.8,5.6-5.3,11.5-7.9,17.2    C930.7,606.2,927.1,602.9,923.8,599.2z"/>
		<path id="imagebot_387" class="st5" d="M1121.9,592.7c5.8,3.5,10.2,9,14.3,14.3c7.1,9.6,12.3,20.5,15.3,32c1,2.9-1.4,5.3-2.6,7.7    c-2.5,4-4.2,8.5-6,12.8c-7.1-7.4-15.3-14-25.3-17c-17.5-5-37.1-2.3-52.6,7.3c-3,2-5.8,4.3-9,6.1c1.4-7.4,6.9-13.2,12.8-17.5    c6.6-4.3,14.9-2.9,22.4-2.6c6,0.2,12.8,0.8,17.6-3.4c5.5-4.8,8.8-11.7,11.5-18.5C1123,607.3,1121.9,599.8,1121.9,592.7z"/>
		<path id="imagebot_388" class="st4" d="M1173.8,621.6c9.5-8.3,21.8-13.6,34.5-14.1c7.7-0.4,15.3,2,22.1,5.3c1,0.6,2.3,1,2.9,2.1    c0.8,8,2.3,16,1.7,24.1c-0.6,7.6-0.2,15.5-2.8,22.9c-2.8,8.6-8.3,16-14.4,22.7c-5.7,4.5-13.4,4.7-20,7c-11.8,3.8-24.5,5.6-35,12.6    c-2.8-11.6-6.4-23.1-12.4-33.4c-1.3-2.7-3.7-4.8-4.6-7.7C1152,647.5,1160.9,632.6,1173.8,621.6z"/>
		<path id="imagebot_389" class="st5" d="M925.2,611.5c2.1,1.1,4.3,2,6.5,3c5.9,7,9.5,15.7,12.8,24.3c-13.9,15.6-21.6,35.8-25.7,56    c-9.8-3.3-19.7-6.1-29.5-9.2c-7-2.1-14.1-3.8-20.8-6.6c5.5-3.5,11.9-5.1,17.6-8.1c15.5-8.3,28.2-22,34.5-38.5    C923.2,625.7,924.2,618.5,925.2,611.5z"/>
		<path id="imagebot_390" class="st5" d="M1233.2,614.9c7.5,4.3,13,11.3,17.6,18.4c7.8,12.8,13.2,27.4,13.3,42.5    c-33.1,13.1-66.9,24.3-100.1,37.2c-0.5-2.9-0.9-5.9-1.3-8.8c10.5-7,23.2-8.8,35-12.6c6.7-2.3,14.3-2.5,20-7    c6-6.6,11.6-14,14.4-22.7c2.6-7.3,2.2-15.2,2.8-22.9C1235.5,630.9,1234,622.9,1233.2,614.9z"/>
		<path id="imagebot_391" class="st4" d="M961.2,630.1c18.3-11,43.3-9.5,60,3.8c5.6,4.4,10.9,9.5,14.4,15.8    c-4.9-2.6-7.7-7.6-12.2-10.7c0.7,6.6,1.9,13.4,0.8,20c-1.6,14.1-8.3,27.7-19.4,36.8c-6.8,6-15.8,9.2-24.8,10.3    c-5.8,0.6-11.3,2.2-17,3.3c-13.8-3.4-27.2-8.3-40.4-13.3c3-16.1,8.8-31.8,17.8-45.5C946.1,642.4,952.8,635,961.2,630.1z"/>
		<path id="imagebot_392" class="st1" d="M797.4,652.2c9.5-5.6,19.5-10.3,29.5-14.9c-0.6,4.4-1.5,8.7-2.2,13.1    c-3.5,2-7.6,3.7-9.8,7.2c-1.1,2.5-1.2,6.5,1.7,7.8c5.9,3.1,12.2,5.4,18.6,7.4c31.2,10.8,63.2,18.9,94.3,29.8    c9.5,3.9,19.4,6.5,29.1,9.7c23.1,6.6,46.3,13.1,69.8,18.3c6.8,1.3,13.6,2.4,20.3,4c14.6,3.2,29.5,5,44.4,5    c11.2-0.3,22.7-1.2,33.1-5.5c4.9-1.8,9.5-4.6,14.2-6.8c41.9-18.8,86.1-31.8,128.5-49.3c3.6-1.5,7.3-3.2,10-6    c1.7-1.8,2.3-5.2,0.1-6.9c-3.4-3.3-8.4-3.3-12.8-4.1c-0.8-2.9-1.6-5.8-2.4-8.8c10.5,1.3,21.2,2.5,31,6.8c4.1,1.6,8.5,3.9,10.1,8.3    c1.2,4.2-2.6,7.2-5.3,9.7c-8.2,6.4-17.4,11.5-27.3,14.7c-40.7,15.3-81.6,30-121.3,47.7c-9,3.8-16.9,10.1-26.5,12.6    c-12.8,4.1-26.4,4.2-39.7,3.4c-9.4-0.5-18.5-2.8-27.7-4.4c-11.9-1.8-23.5-5-35.3-7c-20.3-4.5-40.7-8.8-60.9-14.2    c-42.3-12.5-84.7-24.8-126.3-39.7c-11.3-4.1-22.5-8.5-33.4-13.5c-6.6-3.5-14.1-6.3-18.7-12.5C786.3,658.5,792.2,655.5,797.4,652.2    z"/>
		<path id="imagebot_393" class="st5" d="M1023.5,638.9c4.4,3.1,7.3,8.1,12.2,10.7c1.2,0.8,1.8,2.1,2.6,3.3c2.6,4.9,5.3,9.8,7.2,15    c-12.4,16.7-19.1,36.9-22.4,57.3c-8.7-1.7-17.3-4.2-26-6.3c-11.2-3.4-22.8-5.8-33.9-9.7c5.7-1.1,11.3-2.6,17-3.3    c9-1.1,17.9-4.2,24.8-10.3c11.1-9,17.7-22.7,19.4-36.8C1025.4,652.3,1024.2,645.6,1023.5,638.9z"/>
		<path id="imagebot_394" class="st4" d="M1071.2,651c16.1-8.1,36.2-9.8,52.6-1.6c4.5,2.5,8.9,5.5,12.4,9.4    c-1.3,8.6,0.4,17.5-2.2,26c-2.9,9.9-9.7,18-15.9,26.1c-4.6,6.2-11,10.7-17.7,14.3c-5,2.6-10.4,4.1-15.4,6.7    c-1.5,0.6-2,2.1-2.7,3.4c-9.4-0.4-18.6-2.2-27.9-3.6c-9.1-1.7-18.1-4.1-27.3-5.4c0.4-9.3,3.6-18.2,6.3-27    C1040.5,679.9,1052.3,660.7,1071.2,651z"/>
		<path id="imagebot_395" class="st8" d="M818.1,661.7c0.5-3.3,3.6-5,6.2-6.4c0.1,3.1,0.1,6.3,0,9.5    C822.1,663.8,820.1,662.8,818.1,661.7z"/>
		<path id="imagebot_396" class="st5" d="M1136.2,658.8c5.9,5.4,10.1,12.4,13.7,19.5c5.3,11.4,8.9,23.7,10.2,36.3    c-9.2,3.9-18.5,7.5-27.3,12.1c-15.1,8.6-33.3,9.8-50.3,8.6c0.6-1.3,1.2-2.8,2.7-3.4c4.9-2.6,10.4-4.1,15.4-6.7    c6.7-3.6,13.1-8.1,17.7-14.3c6.2-8.1,13-16.2,15.9-26.1C1136.6,676.3,1134.9,667.4,1136.2,658.8z"/>
		<path id="imagebot_397" class="st8" d="M1267.5,665.3c3,0.4,6,0.9,8.8,1.9c-0.1,4.2-4.9,5-8,6.4    C1268.1,670.8,1267.8,668,1267.5,665.3z"/>
		<path id="imagebot_398" class="st2" d="M1309.2,671c0.3-2.2,2.7-2.6,4.5-3.1C1313.6,669.4,1310.7,671.7,1309.2,671z"/>
		<path id="imagebot_399" class="st3" d="M786.1,672c1.5,0.5,2.9,1.4,4.1,2.5C788.7,675.5,785,674,786.1,672z"/>
		<path id="imagebot_400" class="st1" d="M813.9,686.2c22.2,8.5,44.8,16.4,67.5,23.4c10,3.6,20.4,5.9,30.3,9.7c-3.5,0-7,0-10.5-0.1    c2.6,7.4,6.7,14.7,6.1,22.8c-0.4,7.6-6.1,13.3-10.2,19.2c-11.5,0.6-22.8-1.6-33.9-4.2c-4-0.9-8.3-1.4-12.1-3    c-5.1-3.6-8.2-9.3-11.6-14.4c-7-11.8-12.8-24.1-18.5-36.5C818.8,697.4,815.7,692.1,813.9,686.2z"/>
		<path id="imagebot_401" class="st9" d="M1241.6,707.5c12.2-4.7,24.4-9.4,36.8-13.5c-2.1,8.4-6,16.1-9.4,24    c-6.1,12.6-12.6,25.1-19.6,37.3c-3.1,4.8-5.5,10.3-9.8,14.2c-5.6,3-12.2,3.5-18.4,4.2c-5.9,0.6-11.7,1-17.6,0.8    c3.1-5.2,8.5-8.1,12.2-12.7c8.7-10.5,14.4-23,19.3-35.7C1237.5,719.9,1240.2,713.9,1241.6,707.5z"/>
		<path id="imagebot_402" class="st1" d="M1221.9,714.8c6.7-2.2,13-5.3,19.8-7.3c-1.4,6.4-4.1,12.4-6.4,18.5    c-4.9,12.6-10.7,25.2-19.3,35.7c-3.7,4.6-9.1,7.5-12.2,12.7c-10.3,0.7-20.7,0.5-31,1.4c-7.4,0.7-14.3,4.1-20.2,8.4    c5.9-14.7,8-30.4,10.9-45.9C1182.6,729.9,1202.3,722.5,1221.9,714.8z"/>
		<path id="imagebot_403" class="st9" d="M901.2,719.2c3.5,0.1,7,0.1,10.5,0.1c2.7,0.5,6.3,0.6,7.8,3.4    c6.7,11.2,14.3,21.9,19.9,33.7c-10.4-2.2-21.2-0.8-31.2,2.6c-3.6,1.2-7.3,1.8-11.1,2.2c4.1-5.9,9.8-11.6,10.2-19.2    C907.8,733.9,903.8,726.6,901.2,719.2z"/>
		<path id="imagebot_404" class="st1" d="M924.5,722.9c19.7,5.6,39.2,12.2,59.3,16.3c8.3,2,16.5,4,24.8,5.7    c-1.5,0.4-2.9,0.9-4.3,1.4c3.6,10.9,5.4,23,0.9,34c-18.5,1.1-36.9-1.5-54.6-6.9c-3.3-7.7-5.7-15.8-9.9-23.1    C935.9,740.9,929.8,732.1,924.5,722.9z"/>
		<path id="imagebot_405" class="st9" d="M1128.4,755c10.4-4,19.6-10.6,30.1-14.5c-1.3,12.6-4.2,24.9-7.8,37    c-3.2,8.8-7,17.6-13.7,24.2c-3.2,3.2-7.7,4.8-11.8,6.2c-4.8,1.7-9.9,2.7-15,3c4.8-6.9,11.5-12.6,14.3-20.7    c4.1-11.1,3.4-23.2,3.6-34.8L1128.4,755z"/>
		<path id="imagebot_406" class="st9" d="M1008.7,744.9c4,0.7,8,1.6,11.9,2.6c4.4,10.2,7.7,21,12.3,31.1c-4.2-0.9-8.5-1.8-12.7-0.7    c-4.9,1.1-9.9,2.1-14.9,2.3c4.5-11,2.7-23-0.9-34C1005.8,745.8,1007.2,745.3,1008.7,744.9z"/>
		<path id="imagebot_407" class="st1" d="M1025.8,748.7c25.3,4.4,50.4,12,76.3,10.8c8.8-0.1,17.3-2,25.8-4    c-0.2,11.6,0.5,23.7-3.6,34.8c-2.8,8.1-9.5,13.8-14.3,20.7c-18,3.3-36.6,1-54.7-1.3c-5.2-7.6-10.6-15.1-14.4-23.5    C1034.9,774.1,1030,761.5,1025.8,748.7z"/>
		<path id="imagebot_408" class="st10" d="M845.7,755.2c0.1,0.1,0.2,0.2,0.3,0.3C845.9,755.4,845.8,755.2,845.7,755.2z"/>
		<path id="imagebot_409" class="st11" d="M913.7,761.6c2.5-0.8,5-1.4,7.6-1.7C919.1,761.6,916.3,761.4,913.7,761.6z"/>
		<path id="imagebot_410" class="st12" d="M1021.4,781.5c2.2-0.8,4.6-1.1,6.8,0C1026.2,782.7,1023.3,782.6,1021.4,781.5z"/>
		<path id="imagebot_411" class="st13" d="M1034.6,784.6c1.3,0.5,2.3,1.7,2.6,3.1C1035.8,788.5,1033.7,785.9,1034.6,784.6z"/>
	</g>
</g>
</svg>