<svg xmlns="http://www.w3.org/2000/svg" viewBox="33.89 153.01 444.22 205.99"><g id="Pan"><path d="M468.1079,269.2051H43.8921a10,10,0,0,0-9.146,14.044L65.604,353.0377a10,10,0,0,0,9.146,5.956H315.5356a10,10,0,0,0,9.146-5.956l28.2244-63.8326H468.1079a10,10,0,0,0,0-20ZM315.7788,307.6426l-8.75,19.7886a8.5,8.5,0,0,1-7.7739,5.0625h-65.398a8.5,8.5,0,0,1,0-17h59.8623l6.5117-14.7261a8.5,8.5,0,0,1,15.5479,6.875Z"/><path d="M338.1645,236.065a199.3346,199.3346,0,0,0-63.9614-37.9072,223.9678,223.9678,0,0,0-52.0156-12.3308v-7.221c0-13.5962-11.1651-24.8222-25.4165-25.5576a31.43,31.43,0,0,0-3.2544,0c-14.2534.7354-25.4185,11.9614-25.4185,25.5576v7.22a223.966,223.966,0,0,0-52.0171,12.33,199.3385,199.3385,0,0,0-63.96,37.9043A10,10,0,0,0,58.77,253.53l272.7466.0044a10,10,0,0,0,6.6484-17.47Z"/></g></svg>